<svg width="353" height="91" viewBox="0 0 353 91" fill="none" xmlns="http://www.w3.org/2000/svg">
<rect width="353" height="91" fill="white"/>
<g clip-path="url(#clip0_2341_1783)">
<path d="M97.8068 66.63H86.6734L86.5001 60.76C85.2334 63.0033 83.3634 64.7733 80.8901 66.0666C78.4168 67.36 75.6268 68.01 72.5201 68.01C67.9734 68.01 64.3668 66.76 61.6901 64.2566C59.0134 61.7533 57.6768 58.4033 57.6768 54.2033C57.6768 49.8333 59.2868 46.3066 62.5101 43.6333C65.7301 40.9567 69.9868 39.62 75.2801 39.62C79.3068 39.62 82.9301 40.2833 86.1534 41.6066C86.0934 34.53 82.4134 30.99 75.1068 30.99C70.2734 30.99 65.6701 32.43 61.2968 35.3067L60.3468 25.5533C62.3601 24.23 64.8468 23.18 67.8101 22.4033C70.7734 21.6267 73.7501 21.24 76.7434 21.24C83.5901 21.24 88.8101 22.9533 92.4068 26.3733C96.0034 29.7967 97.8001 34.76 97.8001 41.26V66.63H97.8068ZM83.3501 56.53C85.0468 54.69 85.9801 52.13 86.1568 48.85C83.6234 47.7 80.8068 47.1233 77.7001 47.1233C74.9934 47.1233 72.9101 47.6566 71.4434 48.72C69.9768 49.7866 69.2434 51.3233 69.2434 53.3366C69.2434 55.2366 69.8601 56.7033 71.1001 57.7366C72.3368 58.7733 74.0201 59.29 76.1468 59.29C79.2501 59.2933 81.6534 58.3733 83.3501 56.53Z" fill="#C93733"/>
<path d="M105.053 54.3734C107.123 55.7534 109.453 56.8334 112.043 57.61C114.633 58.3867 117.133 58.7734 119.553 58.7734C124.5 58.7734 126.973 57.3634 126.973 54.5467C126.973 53.2234 126.456 52.1867 125.42 51.44C124.383 50.6934 122.226 49.8567 118.946 48.9367C113.653 47.5 109.896 45.7134 107.683 43.5867C105.466 41.46 104.36 38.5534 104.36 34.87C104.36 30.6134 105.956 27.2767 109.15 24.86C112.343 22.4434 116.73 21.2367 122.31 21.2367C125.073 21.2367 127.833 21.5534 130.596 22.1867C133.36 22.82 135.63 23.6534 137.413 24.69L135.946 33.8367C131.63 31.5934 127.286 30.47 122.913 30.47C118.6 30.47 116.44 31.7934 116.44 34.44C116.44 35.7067 116.986 36.7134 118.08 37.46C119.173 38.21 121.213 38.9867 124.206 39.79C129.73 41.4 133.656 43.3 135.986 45.4867C138.316 47.6734 139.483 50.6367 139.483 54.3767C139.483 58.5767 137.77 61.9 134.346 64.3434C130.923 66.7867 126.22 68.01 120.236 68.01C117.073 68.01 113.95 67.6067 110.873 66.8C107.796 65.9967 105.336 64.96 103.493 63.6934L105.053 54.3734Z" fill="#C93733"/>
<path d="M144.063 54.3734C146.133 55.7534 148.463 56.8334 151.053 57.61C153.64 58.3867 156.143 58.7734 158.56 58.7734C163.507 58.7734 165.983 57.3634 165.983 54.5467C165.983 53.2234 165.467 52.1867 164.43 51.44C163.393 50.6934 161.237 49.8567 157.957 48.9367C152.663 47.5 148.91 45.7134 146.693 43.5867C144.477 41.46 143.37 38.5534 143.37 34.87C143.37 30.6134 144.967 27.2767 148.16 24.86C151.353 22.4434 155.74 21.2367 161.32 21.2367C164.083 21.2367 166.843 21.5534 169.603 22.1867C172.363 22.82 174.637 23.6534 176.42 24.69L174.953 33.8367C170.637 31.5934 166.293 30.47 161.923 30.47C157.607 30.47 155.45 31.7934 155.45 34.44C155.45 35.7067 155.997 36.7134 157.09 37.46C158.183 38.21 160.227 38.9867 163.217 39.79C168.74 41.4 172.667 43.3 174.997 45.4867C177.327 47.6734 178.49 50.6367 178.49 54.3767C178.49 58.5767 176.777 61.9 173.353 64.3434C169.93 66.7867 165.227 68.01 159.243 68.01C156.08 68.01 152.957 67.6067 149.88 66.8C146.8 65.9967 144.343 64.96 142.5 63.6934L144.063 54.3734Z" fill="#C93733"/>
<path d="M185.27 32.67C187.31 29.16 190.16 26.4133 193.813 24.43C197.466 22.4433 201.68 21.4533 206.456 21.4533C208.986 21.4533 211.56 21.7566 214.18 22.36C216.796 22.9633 218.996 23.7833 220.78 24.82L219.226 35.35C215.486 33.5666 211.633 32.6733 207.663 32.6733C203.75 32.6733 200.643 33.7366 198.343 35.8666C196.04 37.9966 194.89 40.9 194.89 44.5833C194.89 48.3233 196.056 51.26 198.383 53.3866C200.713 55.5166 203.95 56.58 208.093 56.58C209.993 56.58 211.903 56.38 213.833 55.9766C215.76 55.5733 217.786 54.9133 219.916 53.99L221.296 64.3466C219.34 65.44 217.053 66.2866 214.436 66.8933C211.82 67.4966 209.186 67.7999 206.54 67.7999C201.65 67.7999 197.376 66.8633 193.723 64.9933C190.07 63.1266 187.236 60.4633 185.223 57.01C183.21 53.5566 182.203 49.5033 182.203 44.8433C182.206 40.2366 183.226 36.18 185.27 32.67Z" fill="#C93733"/>
<path d="M248.4 68.01C243.853 68.01 239.783 66.9866 236.19 64.9466C232.593 62.9066 229.76 60.13 227.69 56.62C225.62 53.1133 224.583 49.1133 224.583 44.6266C224.583 40.1366 225.633 36.14 227.733 32.63C229.833 29.12 232.68 26.3433 236.276 24.3033C239.873 22.26 243.913 21.24 248.403 21.24C253.006 21.24 257.09 22.2633 260.656 24.3033C264.223 26.3467 267.043 29.1233 269.113 32.63C271.183 36.14 272.22 40.1366 272.22 44.6266C272.22 49.0566 271.17 53.04 269.07 56.58C266.97 60.12 264.136 62.91 260.57 64.95C257 66.9866 252.943 68.01 248.4 68.01ZM256.51 35.86C254.44 33.59 251.733 32.45 248.396 32.45C245.116 32.45 242.443 33.5867 240.37 35.86C238.296 38.1333 237.263 41.0533 237.263 44.62C237.263 48.1866 238.3 51.1066 240.37 53.38C242.44 55.6533 245.116 56.79 248.396 56.79C251.733 56.79 254.436 55.6533 256.51 53.38C258.583 51.1066 259.616 48.19 259.616 44.62C259.62 41.0567 258.583 38.1367 256.51 35.86Z" fill="#C93733"/>
<path d="M50.6834 67.6667H38.8633V41.9167C38.8633 37.2167 35.04 33.3967 30.34 33.3967C25.64 33.3967 21.82 37.22 21.82 41.9167V67.6667H10V41.9167C10 30.7 19.1267 21.5767 30.34 21.5767C41.5533 21.5767 50.68 30.7033 50.68 41.9167V67.6667H50.6834Z" fill="#C93733"/>
<path d="M317.196 67.6667H305.376V40.5533C305.376 36.6067 302.166 33.3967 298.22 33.3967C294.273 33.3967 291.063 36.6067 291.063 40.5533V67.6667H279.243V40.5533C279.243 30.09 287.756 21.5767 298.22 21.5767C308.683 21.5767 317.196 30.09 317.196 40.5533V67.6667Z" fill="#C93733"/>
<path d="M343.333 67.6667H331.513V40.5533C331.513 36.6067 328.303 33.3967 324.357 33.3967C320.41 33.3967 317.2 36.6067 317.2 40.5533V67.6667H305.38V40.5533C305.38 30.09 313.893 21.5767 324.357 21.5767C334.82 21.5767 343.333 30.09 343.333 40.5533V67.6667Z" fill="#C93733"/>
</g>
<defs>
<clipPath id="clip0_2341_1783">
<rect width="333.333" height="56" fill="white" transform="translate(10 17)"/>
</clipPath>
</defs>
</svg>
